<svg version="1.1" id="Layer_1" xmlns="http://www.w3.org/2000/svg" xmlns:xlink="http://www.w3.org/1999/xlink" x="0px" y="0px"
	 width="100%" viewBox="0 0 512 512" enable-background="new 0 0 512 512" xml:space="preserve">
<path fill="#FEFEFE" opacity="1.000000" stroke="none" 
	d="
M513.000000,68.000000 
	C513.000000,193.689316 513.000000,319.378632 512.659058,445.236603 
	C511.879639,446.222992 511.246307,446.992859 511.031921,447.865601 
	C507.503754,462.227661 500.930145,474.917511 490.774292,485.762787 
	C478.708801,498.647339 464.373932,507.480865 446.969269,511.108307 
	C446.533691,511.199127 446.318146,512.345764 446.000000,513.000000 
	C320.310699,513.000000 194.621384,513.000000 68.763412,512.659058 
	C67.777008,511.879669 67.007164,511.246307 66.134407,511.031921 
	C51.772358,507.503754 39.082531,500.930145 28.237226,490.774323 
	C15.352676,478.708832 6.519048,464.373993 2.891609,446.969330 
	C2.800825,446.533722 1.654199,446.318176 1.000003,446.000000 
	C1.000000,320.310699 1.000000,194.621384 1.340955,68.763412 
	C2.120326,67.777016 2.753682,67.007187 2.968077,66.134438 
	C6.496199,51.772350 13.069858,39.082527 23.225718,28.237249 
	C35.291203,15.352712 49.625980,6.518996 67.030678,2.891596 
	C67.466278,2.800811 67.681824,1.654192 68.000000,1.000000 
	C193.689316,1.000000 319.378632,1.000000 445.236603,1.340967 
	C446.222992,2.120343 446.992859,2.753676 447.865601,2.968078 
	C462.227692,6.496214 474.917511,13.069882 485.762787,23.225740 
	C498.647308,35.291214 507.481018,49.625992 511.108398,67.030693 
	C511.199158,67.466293 512.345825,67.681831 513.000000,68.000000 
M382.920471,279.955414 
	C389.611816,279.906677 396.303162,279.857941 403.919556,279.962402 
	C410.541290,279.907471 417.163025,279.852539 424.606171,279.959442 
	C432.999939,279.903778 441.393677,279.848145 450.609772,279.956757 
	C459.404297,279.911407 468.198822,279.866028 477.920898,279.964355 
	C483.512756,279.964355 489.104614,279.964355 494.997650,279.964355 
	C494.997650,278.388458 494.997528,277.416046 494.997711,276.443634 
	C495.002686,252.006012 491.571808,228.069565 484.212677,204.755737 
	C477.227051,182.625244 467.649353,161.719452 453.942139,142.107834 
	C444.649231,130.943893 435.356293,119.779961 425.799561,108.030907 
	C410.730560,92.789803 393.890839,79.823982 375.254303,69.268639 
	C343.215820,51.122662 308.935760,40.424271 271.260651,38.431774 
	C266.638123,38.338394 262.015594,38.245018 256.399231,38.037621 
	C246.269974,38.778534 236.140732,39.519447 225.202225,40.182903 
	C218.168869,41.484356 211.068558,42.500648 204.113022,44.133625 
	C159.585739,54.587463 121.056839,75.839607 88.347893,108.903473 
	C42.255123,156.567322 19.943876,213.629471 19.901617,279.782806 
	C29.932600,279.782806 39.071846,279.782806 49.010262,279.921021 
	C52.348717,279.880463 55.687168,279.839935 59.665634,279.950470 
	C60.098488,279.903229 60.531345,279.856018 61.896263,279.951355 
	C71.932877,279.900116 81.969498,279.848846 92.856934,279.944214 
	C94.580864,279.897675 96.304787,279.851105 98.920006,279.960266 
	C101.933174,279.910370 104.946335,279.860474 108.891983,279.954651 
	C123.480324,279.954651 138.068665,279.954651 152.284103,279.954651 
	C153.415955,271.862885 154.030045,264.233002 155.609055,256.808350 
	C159.872284,236.762222 170.117355,219.895874 184.785812,204.936966 
	C189.814163,200.972961 194.842514,197.008957 200.164322,193.761749 
	C203.167007,206.163651 206.169708,218.565567 208.507019,231.162659 
	C194.610916,244.303711 188.788147,260.735962 187.968948,279.570709 
	C199.722046,279.570709 210.659424,279.570709 221.920853,280.167908 
	C222.544861,281.332245 223.177689,282.491974 223.791550,283.661652 
	C231.984863,299.273376 248.117401,307.664856 265.659027,305.118469 
	C281.126587,302.873138 291.330170,293.710358 298.702271,279.896179 
	C308.292267,279.896179 317.882233,279.896179 327.428619,279.896179 
	C329.114319,247.863220 302.197662,212.456177 261.207703,209.847275 
	C251.013428,199.610977 240.819138,189.374680 231.490997,179.044937 
	C240.128372,177.980392 248.765762,176.915848 258.252747,175.992859 
	C273.747894,176.287552 288.727966,179.398682 302.194427,186.994736 
	C311.906158,192.472885 320.645966,199.674057 330.066528,206.733658 
	C349.664673,227.133469 359.625763,251.566315 360.149292,279.798615 
	C367.746552,279.798615 374.870422,279.798615 382.920471,279.955414 
M203.357758,369.125549 
	C195.843323,356.770935 188.362427,344.395599 180.763535,332.093170 
	C179.988556,330.838470 178.528152,329.168579 177.346817,329.136688 
	C168.230209,328.890717 159.103989,329.001221 149.868118,329.001221 
	C149.868118,371.168823 149.868118,412.888367 149.868118,454.715210 
	C160.797791,454.715210 171.520187,454.715210 182.851730,454.715210 
	C182.851730,433.644928 182.851730,412.856628 182.851730,392.068329 
	C192.187714,405.779510 201.149124,419.364075 208.942886,433.588409 
	C212.934097,440.872742 217.631287,443.761566 225.753662,442.828674 
	C229.279846,442.423676 231.329788,441.614105 233.147842,438.476501 
	C241.728500,423.667755 250.584198,409.018280 259.358734,394.322083 
	C260.313477,392.722961 261.376801,391.188660 262.389771,389.624298 
	C262.682709,389.717529 262.975677,389.810791 263.268616,389.904022 
	C263.268616,411.479370 263.268616,433.054718 263.268616,454.683411 
	C274.486298,454.683411 285.202972,454.683411 295.631073,454.683411 
	C295.631073,412.640533 295.631073,370.917572 295.631073,328.997589 
	C286.552185,328.997589 277.896301,328.859680 269.252960,329.126831 
	C267.726349,329.174011 265.705627,330.566467 264.844971,331.927124 
	C260.315826,339.087250 256.086090,346.436737 251.751953,353.720215 
	C242.356186,369.509888 232.960114,385.299347 223.206680,401.689636 
	C216.519424,390.676483 210.154770,380.194672 203.357758,369.125549 
M338.245575,446.257355 
	C368.568878,465.331940 414.346924,459.221344 432.255707,433.457397 
	C424.925323,426.831665 417.563934,420.177856 410.242798,413.560455 
	C390.165009,430.968323 369.113342,432.593903 354.911865,418.093628 
	C342.170624,405.084320 341.727325,380.660248 354.058380,366.864990 
	C360.014740,360.201385 367.751801,356.970398 376.479889,356.171204 
	C390.091095,354.924957 401.035126,360.373199 409.988434,370.695099 
	C417.680603,363.724915 425.021698,357.072876 432.953583,349.885498 
	C428.566315,346.006836 424.890228,342.113770 420.605011,339.081512 
	C403.428040,326.927124 384.158875,324.677856 363.901550,327.904266 
	C337.863770,332.051300 316.010803,351.739655 311.066162,375.402374 
	C304.918945,404.820099 314.604340,430.564667 338.245575,446.257355 
M121.465683,329.001099 
	C112.562401,329.001099 103.659111,329.001099 94.834587,329.001099 
	C94.834587,371.341156 94.834587,412.946869 94.834587,454.629761 
	C106.695641,454.629761 118.387543,454.629761 129.980865,454.629761 
	C129.980865,412.656860 129.980865,371.053314 129.980865,329.001099 
	C127.367493,329.001099 124.910141,329.001099 121.465683,329.001099 
z"/>
<path fill="#000000" opacity="1.000000" stroke="none" 
	d="
M446.468628,513.000000 
	C446.318146,512.345764 446.533691,511.199127 446.969269,511.108307 
	C464.373932,507.480865 478.708801,498.647339 490.774292,485.762787 
	C500.930145,474.917511 507.503754,462.227661 511.031921,447.865601 
	C511.246307,446.992859 511.879639,446.222992 512.659058,445.702637 
	C513.000000,468.260162 513.000000,490.520355 513.000000,513.000000 
	C490.979584,513.000000 468.958466,513.000000 446.468628,513.000000 
z"/>
<path fill="#000000" opacity="1.000000" stroke="none" 
	d="
M1.000003,446.468658 
	C1.654199,446.318176 2.800825,446.533722 2.891609,446.969330 
	C6.519048,464.373993 15.352676,478.708832 28.237226,490.774323 
	C39.082531,500.930145 51.772358,507.503754 66.134407,511.031921 
	C67.007164,511.246307 67.777008,511.879669 68.297363,512.659058 
	C45.739822,513.000000 23.479647,513.000000 1.000000,513.000000 
	C1.000000,490.979584 1.000000,468.958466 1.000003,446.468658 
z"/>
<path fill="#000000" opacity="1.000000" stroke="none" 
	d="
M513.000000,67.531342 
	C512.345825,67.681831 511.199158,67.466293 511.108398,67.030693 
	C507.481018,49.625992 498.647308,35.291214 485.762787,23.225740 
	C474.917511,13.069882 462.227692,6.496214 447.865601,2.968078 
	C446.992859,2.753676 446.222992,2.120343 445.702637,1.340967 
	C468.260162,1.000000 490.520355,1.000000 513.000000,1.000000 
	C513.000000,23.020409 513.000000,45.041546 513.000000,67.531342 
z"/>
<path fill="#000000" opacity="1.000000" stroke="none" 
	d="
M67.531342,1.000000 
	C67.681824,1.654192 67.466278,2.800811 67.030678,2.891596 
	C49.625980,6.518996 35.291203,15.352712 23.225718,28.237249 
	C13.069858,39.082527 6.496199,51.772350 2.968077,66.134438 
	C2.753682,67.007187 2.120326,67.777016 1.340955,68.297363 
	C1.000000,45.739822 1.000000,23.479643 1.000000,1.000000 
	C23.020409,1.000000 45.041546,1.000000 67.531342,1.000000 
z"/>
<path fill="#020202" opacity="1.000000" stroke="none" 
	d="
M203.573944,369.419189 
	C210.154770,380.194672 216.519424,390.676483 223.206680,401.689636 
	C232.960114,385.299347 242.356186,369.509888 251.751953,353.720215 
	C256.086090,346.436737 260.315826,339.087250 264.844971,331.927124 
	C265.705627,330.566467 267.726349,329.174011 269.252960,329.126831 
	C277.896301,328.859680 286.552185,328.997589 295.631073,328.997589 
	C295.631073,370.917572 295.631073,412.640533 295.631073,454.683411 
	C285.202972,454.683411 274.486298,454.683411 263.268616,454.683411 
	C263.268616,433.054718 263.268616,411.479370 263.268616,389.904022 
	C262.975677,389.810791 262.682709,389.717529 262.389771,389.624298 
	C261.376801,391.188660 260.313477,392.722961 259.358734,394.322083 
	C250.584198,409.018280 241.728500,423.667755 233.147842,438.476501 
	C231.329788,441.614105 229.279846,442.423676 225.753662,442.828674 
	C217.631287,443.761566 212.934097,440.872742 208.942886,433.588409 
	C201.149124,419.364075 192.187714,405.779510 182.851730,392.068329 
	C182.851730,412.856628 182.851730,433.644928 182.851730,454.715210 
	C171.520187,454.715210 160.797791,454.715210 149.868118,454.715210 
	C149.868118,412.888367 149.868118,371.168823 149.868118,329.001221 
	C159.103989,329.001221 168.230209,328.890717 177.346817,329.136688 
	C178.528152,329.168579 179.988556,330.838470 180.763535,332.093170 
	C188.362427,344.395599 195.843323,356.770935 203.573944,369.419189 
z"/>
<path fill="#020202" opacity="1.000000" stroke="none" 
	d="
M337.922394,446.093384 
	C314.604340,430.564667 304.918945,404.820099 311.066162,375.402374 
	C316.010803,351.739655 337.863770,332.051300 363.901550,327.904266 
	C384.158875,324.677856 403.428040,326.927124 420.605011,339.081512 
	C424.890228,342.113770 428.566315,346.006836 432.953583,349.885498 
	C425.021698,357.072876 417.680603,363.724915 409.988434,370.695099 
	C401.035126,360.373199 390.091095,354.924957 376.479889,356.171204 
	C367.751801,356.970398 360.014740,360.201385 354.058380,366.864990 
	C341.727325,380.660248 342.170624,405.084320 354.911865,418.093628 
	C369.113342,432.593903 390.165009,430.968323 410.242798,413.560455 
	C417.563934,420.177856 424.925323,426.831665 432.255707,433.457397 
	C414.346924,459.221344 368.568878,465.331940 337.922394,446.093384 
z"/>
<path fill="#020302" opacity="1.000000" stroke="none" 
	d="
M297.732300,279.841370 
	C291.330170,293.710358 281.126587,302.873138 265.659027,305.118469 
	C248.117401,307.664856 231.984863,299.273376 223.791550,283.661652 
	C223.177689,282.491974 222.544861,281.332245 221.736725,279.475433 
	C221.012115,276.710297 220.468170,274.638550 219.931671,272.564850 
	C216.344360,258.699280 212.758636,244.833313 209.172409,230.967468 
	C206.169708,218.565567 203.167007,206.163651 200.026093,193.014771 
	C196.958328,181.178329 194.028809,170.088867 191.128876,158.588898 
	C189.469330,151.013489 187.780182,143.848587 186.091034,136.683685 
	C186.674240,136.169952 187.257446,135.656204 187.840652,135.142456 
	C193.209305,141.141556 198.577972,147.140656 204.088684,153.435913 
	C209.848801,159.143005 215.466843,164.553909 221.215424,170.267685 
	C224.438904,173.426483 227.531876,176.282425 230.624847,179.138382 
	C240.819138,189.374680 251.013428,199.610977 261.643433,210.291687 
	C269.046967,217.614548 276.046326,224.461441 282.968658,231.385315 
	C286.241394,234.658768 289.788818,237.773895 292.480591,241.490341 
	C300.999908,253.252884 301.953705,266.237885 297.732300,279.841370 
M263.084229,238.922958 
	C252.838272,237.779755 244.723892,241.422058 239.360306,250.219208 
	C234.455032,258.264679 234.503845,266.728149 239.286880,274.811279 
	C245.011856,284.486176 256.148682,288.548981 266.906830,285.338593 
	C276.929596,282.347626 284.068176,272.462830 283.756134,262.007416 
	C283.413483,250.526855 275.974396,241.883133 263.084229,238.922958 
z"/>
<path fill="#0176FF" opacity="1.000000" stroke="none" 
	d="
M48.211090,279.782806 
	C39.071846,279.782806 29.932600,279.782806 19.901617,279.782806 
	C19.943876,213.629471 42.255123,156.567322 88.939911,108.919189 
	C93.335136,112.658508 97.138336,116.382118 101.069000,120.412582 
	C103.814026,123.769493 106.431580,126.819557 108.900879,130.191315 
	C107.806053,132.072113 106.640411,133.539871 105.946518,135.204300 
	C98.233246,153.705902 90.581207,172.233093 82.935951,190.762970 
	C73.257042,214.221817 63.370300,237.599442 54.092655,261.216187 
	C51.742489,267.198669 46.479309,272.455292 48.211090,279.782806 
z"/>
<path fill="#006CFF" opacity="1.000000" stroke="none" 
	d="
M48.610676,279.851929 
	C46.479309,272.455292 51.742489,267.198669 54.092655,261.216187 
	C63.370300,237.599442 73.257042,214.221817 82.935951,190.762970 
	C90.581207,172.233093 98.233246,153.705902 105.946518,135.204300 
	C106.640411,133.539871 107.806053,132.072113 109.204514,130.337860 
	C112.016235,132.148087 114.376060,134.133453 116.892761,136.421158 
	C123.710014,143.454849 130.370407,150.186172 137.147415,157.205017 
	C138.336029,158.684540 139.408020,159.876556 140.313400,161.459167 
	C134.562653,175.286148 129.032852,188.745422 123.381660,202.153549 
	C114.956902,222.142258 106.350098,242.054855 98.033386,262.088104 
	C95.647636,267.834930 93.994934,273.886017 92.006119,279.797607 
	C81.969498,279.848846 71.932877,279.900116 61.279884,279.687622 
	C60.117542,279.549042 59.571583,279.674194 59.025623,279.799377 
	C55.687168,279.839935 52.348717,279.880463 48.610676,279.851929 
z"/>
<path fill="#FFDC00" opacity="1.000000" stroke="none" 
	d="
M257.393066,38.151642 
	C262.015594,38.245018 266.638123,38.338394 271.660034,38.978279 
	C272.481079,40.210804 272.752167,41.090664 273.347504,41.553024 
	C279.707123,46.492203 286.144470,51.331276 292.509186,56.263981 
	C303.866638,65.066093 315.179779,73.925392 326.527679,82.739838 
	C345.477264,97.458839 364.295624,112.353561 383.493011,126.742302 
	C388.607513,130.575699 393.313080,138.441376 401.725128,132.065903 
	C401.826935,131.988754 402.049805,132.071350 402.057739,132.366028 
	C400.534424,134.280411 399.169495,135.908157 397.499359,137.698990 
	C391.112518,143.874054 385.030884,149.886017 378.651611,156.053925 
	C375.675720,158.996719 372.997437,161.783569 370.128387,164.224731 
	C368.183685,162.643570 366.369537,161.484573 364.686005,160.159622 
	C356.381866,153.624268 348.127045,147.026291 339.826233,140.486694 
	C332.434326,134.663162 324.986694,128.910370 317.597473,123.083443 
	C310.475464,117.467232 303.395203,111.798058 296.299408,106.148605 
	C288.671631,100.075607 281.185425,93.812820 273.370972,87.990570 
	C268.433228,84.311668 263.007416,81.287811 257.638367,77.533813 
	C257.362305,68.396240 257.248413,59.695000 257.207825,50.536743 
	C257.318420,46.103695 257.355743,42.127670 257.393066,38.151642 
z"/>
<path fill="#0162FF" opacity="1.000000" stroke="none" 
	d="
M92.431526,279.870911 
	C93.994934,273.886017 95.647636,267.834930 98.033386,262.088104 
	C106.350098,242.054855 114.956902,222.142258 123.381660,202.153549 
	C129.032852,188.745422 134.562653,175.286148 140.603912,161.660248 
	C146.642365,167.007996 152.223663,172.545288 157.953140,178.387451 
	C166.788849,187.526718 175.476364,196.361099 184.163895,205.195496 
	C170.117355,219.895874 159.872284,236.762222 155.609055,256.808350 
	C154.030045,264.233002 153.415955,271.862885 152.284103,279.954651 
	C138.068665,279.954651 123.480324,279.954651 108.122513,279.633362 
	C104.244942,279.476227 101.136826,279.640381 98.028717,279.804565 
	C96.304787,279.851105 94.580864,279.897675 92.431526,279.870911 
z"/>
<path fill="#FFE301" opacity="1.000000" stroke="none" 
	d="
M402.216187,132.079376 
	C402.049805,132.071350 401.826935,131.988754 401.725128,132.065903 
	C393.313080,138.441376 388.607513,130.575699 383.493011,126.742302 
	C364.295624,112.353561 345.477264,97.458839 326.527679,82.739838 
	C315.179779,73.925392 303.866638,65.066093 292.509186,56.263981 
	C286.144470,51.331276 279.707123,46.492203 273.347504,41.553024 
	C272.752167,41.090664 272.481079,40.210804 272.031006,39.155296 
	C308.935760,40.424271 343.215820,51.122662 375.254303,69.268639 
	C393.890839,79.823982 410.730560,92.789803 425.640747,108.520340 
	C423.273499,111.315453 421.065033,113.621132 418.566101,116.079735 
	C412.922485,121.514900 407.569336,126.797150 402.216187,132.079376 
z"/>
<path fill="#000000" opacity="1.000000" stroke="none" 
	d="
M121.959236,329.001099 
	C124.910141,329.001099 127.367493,329.001099 129.980865,329.001099 
	C129.980865,371.053314 129.980865,412.656860 129.980865,454.629761 
	C118.387543,454.629761 106.695641,454.629761 94.834587,454.629761 
	C94.834587,412.946869 94.834587,371.341156 94.834587,329.001099 
	C103.659111,329.001099 112.562401,329.001099 121.959236,329.001099 
z"/>
<path fill="#FF4C23" opacity="1.000000" stroke="none" 
	d="
M418.856537,115.926819 
	C421.065033,113.621132 423.273499,111.315453 425.772675,108.812897 
	C435.356293,119.779961 444.649231,130.943893 453.959961,142.824646 
	C453.866760,144.816147 453.502228,146.129654 453.690369,147.358536 
	C454.362030,151.745453 455.211243,156.105484 456.011505,160.472351 
	C459.277161,178.293030 462.511292,196.119614 465.833740,213.929718 
	C467.827209,224.615799 469.964447,235.275040 472.033325,245.947083 
	C473.663177,254.354431 475.413055,262.741577 476.843048,271.182831 
	C477.318604,273.990021 476.966858,276.937408 476.993347,279.820679 
	C468.198822,279.866028 459.404297,279.911407 450.284912,279.429047 
	C449.199005,271.768555 448.885620,264.553253 447.588898,257.519226 
	C444.327087,239.825745 440.431000,222.249557 437.139740,204.561111 
	C432.580902,180.060165 428.524750,155.464584 423.819855,130.992859 
	C422.837891,125.885353 423.835358,119.826149 418.856537,115.926819 
z"/>
<path fill="#FF441E" opacity="1.000000" stroke="none" 
	d="
M418.566101,116.079727 
	C423.835358,119.826149 422.837891,125.885353 423.819855,130.992859 
	C428.524750,155.464584 432.580902,180.060165 437.139740,204.561111 
	C440.431000,222.249557 444.327087,239.825745 447.588898,257.519226 
	C448.885620,264.553253 449.199005,271.768555 449.873749,279.346924 
	C441.393677,279.848145 432.999939,279.903778 424.265686,279.373199 
	C422.615723,270.341034 421.448853,261.869995 419.967773,253.454285 
	C416.627930,234.476807 413.134644,215.526337 409.699677,196.565598 
	C407.792480,186.037918 406.023560,175.482376 403.921295,164.993713 
	C402.078918,155.801712 399.858154,146.685562 397.804565,137.535904 
	C399.169495,135.908157 400.534424,134.280411 402.057770,132.366028 
	C407.569336,126.797150 412.922485,121.514900 418.566101,116.079727 
z"/>
<path fill="#47CD38" opacity="1.000000" stroke="none" 
	d="
M256.896149,38.094631 
	C257.355743,42.127670 257.318420,46.103695 256.807800,50.539093 
	C254.813400,51.514977 253.133118,51.770554 251.794846,52.586845 
	C228.631882,66.715225 205.483261,80.867691 182.392105,95.113068 
	C170.145737,102.668083 158.028671,110.432381 145.827805,118.061562 
	C136.150574,124.112724 126.434639,130.102036 116.735886,136.118805 
	C114.376060,134.133453 112.016235,132.148087 109.352768,130.016174 
	C106.431580,126.819557 103.814026,123.769493 101.225151,120.099403 
	C101.470459,119.228134 101.640968,118.901909 101.910263,118.736343 
	C122.915253,105.821655 143.942444,92.943016 164.935959,80.009720 
	C184.690781,67.839546 204.422806,55.632126 224.107803,43.349670 
	C225.027008,42.776123 225.389633,41.310513 226.011475,40.260361 
	C236.140732,39.519447 246.269974,38.778534 256.896149,38.094631 
z"/>
<path fill="#FF3D19" opacity="1.000000" stroke="none" 
	d="
M397.499359,137.698990 
	C399.858154,146.685562 402.078918,155.801712 403.921295,164.993713 
	C406.023560,175.482376 407.792480,186.037918 409.699677,196.565598 
	C413.134644,215.526337 416.627930,234.476807 419.967773,253.454285 
	C421.448853,261.869995 422.615723,270.341034 423.854980,279.292297 
	C417.163025,279.852539 410.541290,279.907471 403.456665,279.478394 
	C401.999573,273.806183 400.927399,268.631500 400.026001,263.427185 
	C397.448639,248.546158 395.043427,233.634628 392.374207,218.770355 
	C390.038666,205.764252 387.598541,192.772125 384.893616,179.838898 
	C383.211456,171.796005 380.950439,163.874161 378.949249,155.897995 
	C385.030884,149.886017 391.112518,143.874054 397.499359,137.698990 
z"/>
<path fill="#FFD001" opacity="1.000000" stroke="none" 
	d="
M329.819275,206.106720 
	C320.645966,199.674057 311.906158,192.472885 302.194427,186.994736 
	C288.727966,179.398682 273.747894,176.287552 257.807434,175.464706 
	C257.294403,165.967392 257.226715,156.998245 257.339050,147.673019 
	C257.611572,139.220520 257.704041,131.124084 258.106415,123.032715 
	C259.483795,123.474503 260.711243,123.702759 261.594147,124.380089 
	C270.904144,131.522400 280.171997,138.720001 289.425507,145.935623 
	C296.826111,151.706421 304.225769,157.479492 311.561951,163.331619 
	C319.059082,169.312103 326.378113,175.520233 333.972900,181.371994 
	C337.914307,184.408829 341.199188,189.057938 347.068665,188.377136 
	C341.210114,194.486038 335.514679,200.296371 329.819275,206.106720 
z"/>
<path fill="#4DCF3E" opacity="1.000000" stroke="none" 
	d="
M225.606842,40.221634 
	C225.389633,41.310513 225.027008,42.776123 224.107803,43.349670 
	C204.422806,55.632126 184.690781,67.839546 164.935959,80.009720 
	C143.942444,92.943016 122.915253,105.821655 101.910263,118.736343 
	C101.640968,118.901909 101.470459,119.228134 101.097687,119.792557 
	C97.138336,116.382118 93.335136,112.658508 89.236679,108.731163 
	C121.056839,75.839607 159.585739,54.587463 204.113022,44.133625 
	C211.068558,42.500648 218.168869,41.484356 225.606842,40.221634 
z"/>
<path fill="#FF3111" opacity="1.000000" stroke="none" 
	d="
M329.942871,206.420181 
	C335.514679,200.296371 341.210114,194.486038 347.352142,188.224564 
	C352.750549,182.946198 357.702332,178.118988 362.826904,173.702911 
	C363.483154,176.362915 363.977081,178.609604 364.448395,180.861023 
	C366.952454,192.822662 369.642670,204.749405 371.900299,216.757446 
	C374.431732,230.222046 376.650543,243.747467 378.847717,257.272034 
	C380.063171,264.753845 380.956024,272.288025 381.994293,279.798615 
	C374.870422,279.798615 367.746552,279.798615 360.149292,279.798615 
	C359.625763,251.566315 349.664673,227.133469 329.942871,206.420181 
z"/>
<path fill="#FF3615" opacity="1.000000" stroke="none" 
	d="
M382.457397,279.877014 
	C380.956024,272.288025 380.063171,264.753845 378.847717,257.272034 
	C376.650543,243.747467 374.431732,230.222046 371.900299,216.757446 
	C369.642670,204.749405 366.952454,192.822662 364.448395,180.861023 
	C363.977081,178.609604 363.483154,176.362915 362.977234,173.441803 
	C365.409607,170.036545 367.864380,167.303482 370.319153,164.570404 
	C372.997437,161.783569 375.675720,158.996719 378.651611,156.053925 
	C380.950439,163.874161 383.211456,171.796005 384.893616,179.838898 
	C387.598541,192.772125 390.038666,205.764252 392.374207,218.770355 
	C395.043427,233.634628 397.448639,248.546158 400.026001,263.427185 
	C400.927399,268.631500 401.999573,273.806183 402.994141,279.401825 
	C396.303162,279.857941 389.611816,279.906677 382.457397,279.877014 
z"/>
<path fill="#FF5329" opacity="1.000000" stroke="none" 
	d="
M477.457123,279.892517 
	C476.966858,276.937408 477.318604,273.990021 476.843048,271.182831 
	C475.413055,262.741577 473.663177,254.354431 472.033325,245.947083 
	C469.964447,235.275040 467.827209,224.615799 465.833740,213.929718 
	C462.511292,196.119614 459.277161,178.293030 456.011505,160.472351 
	C455.211243,156.105484 454.362030,151.745453 453.690369,147.358536 
	C453.502228,146.129654 453.866760,144.816147 454.037445,143.151733 
	C467.649353,161.719452 477.227051,182.625244 484.212677,204.755737 
	C491.571808,228.069565 495.002686,252.006012 494.997711,276.443634 
	C494.997528,277.416046 494.997650,278.388458 494.997650,279.964355 
	C489.104614,279.964355 483.512756,279.964355 477.457123,279.892517 
z"/>
<path fill="#CBCBCB" opacity="1.000000" stroke="none" 
	d="
M298.217285,279.868774 
	C301.953705,266.237885 300.999908,253.252884 292.480591,241.490341 
	C289.788818,237.773895 286.241394,234.658768 282.968658,231.385315 
	C276.046326,224.461441 269.046967,217.614548 261.946808,210.425293 
	C302.197662,212.456177 329.114319,247.863220 327.428619,279.896179 
	C317.882233,279.896179 308.292267,279.896179 298.217285,279.868774 
z"/>
<path fill="#30C520" opacity="1.000000" stroke="none" 
	d="
M184.474854,205.066223 
	C175.476364,196.361099 166.788849,187.526718 158.286469,178.247330 
	C162.226471,175.478699 165.916382,173.041168 169.750198,170.856140 
	C176.821991,166.825668 183.978226,162.943405 191.099274,158.999405 
	C194.028809,170.088867 196.958328,181.178329 199.879349,192.656357 
	C194.842514,197.008957 189.814163,200.972961 184.474854,205.066223 
z"/>
<path fill="#CCCCCC" opacity="1.000000" stroke="none" 
	d="
M208.839722,231.065063 
	C212.758636,244.833313 216.344360,258.699280 219.931671,272.564850 
	C220.468170,274.638550 221.012115,276.710297 221.574707,279.176819 
	C210.659424,279.570709 199.722046,279.570709 187.968948,279.570709 
	C188.788147,260.735962 194.610916,244.303711 208.839722,231.065063 
z"/>
<path fill="#2BC41A" opacity="1.000000" stroke="none" 
	d="
M257.159027,148.029083 
	C257.226715,156.998245 257.294403,165.967392 257.382629,175.393936 
	C248.765762,176.915848 240.128372,177.980392 231.057922,179.091660 
	C227.531876,176.282425 224.438904,173.426483 221.509857,170.117889 
	C228.118317,165.486969 234.486237,161.183792 241.031540,157.169830 
	C246.296021,153.941345 251.775146,151.062866 257.159027,148.029083 
z"/>
<path fill="#0176FF" opacity="1.000000" stroke="none" 
	d="
M98.474365,279.882416 
	C101.136826,279.640381 104.244942,279.476227 107.656281,279.561340 
	C104.946335,279.860474 101.933174,279.910370 98.474365,279.882416 
z"/>
<path fill="#0176FF" opacity="1.000000" stroke="none" 
	d="
M59.345627,279.874939 
	C59.571583,279.674194 60.117542,279.549042 60.813850,279.616333 
	C60.531345,279.856018 60.098488,279.903229 59.345627,279.874939 
z"/>
<path fill="#38C828" opacity="1.000000" stroke="none" 
	d="
M191.128876,158.588898 
	C183.978226,162.943405 176.821991,166.825668 169.750198,170.856140 
	C165.916382,173.041168 162.226471,175.478699 158.138306,177.942444 
	C152.223663,172.545288 146.642365,167.007996 140.770538,161.269638 
	C139.408020,159.876556 138.336029,158.684540 137.182068,156.858917 
	C142.455826,152.460968 147.636093,148.412109 153.198029,144.982132 
	C175.740753,131.080338 198.423721,117.406204 221.007614,103.570816 
	C231.730042,97.002029 242.331924,90.236694 253.029434,83.626778 
	C254.264420,82.863693 255.763214,82.527573 257.206909,82.458900 
	C257.232178,95.280182 257.190308,107.636070 256.762390,119.998352 
	C252.835892,121.709930 249.119278,123.128235 245.788101,125.174103 
	C235.774689,131.323959 225.845169,137.617371 216.020889,144.064987 
	C211.820221,146.821854 207.960999,150.099014 203.946625,153.139755 
	C198.577972,147.140656 193.209305,141.141556 187.840652,135.142456 
	C187.257446,135.656204 186.674240,136.169952 186.091034,136.683685 
	C187.780182,143.848587 189.469330,151.013489 191.128876,158.588898 
z"/>
<path fill="#FDFDFD" opacity="1.000000" stroke="none" 
	d="
M263.522461,238.964706 
	C275.974396,241.883133 283.413483,250.526855 283.756134,262.007416 
	C284.068176,272.462830 276.929596,282.347626 266.906830,285.338593 
	C256.148682,288.548981 245.011856,284.486176 239.286880,274.811279 
	C234.503845,266.728149 234.455032,258.264679 239.360306,250.219208 
	C244.723892,241.422058 252.838272,237.779755 263.522461,238.964706 
z"/>
<path fill="#30C61F" opacity="1.000000" stroke="none" 
	d="
M204.088684,153.435913 
	C207.960999,150.099014 211.820221,146.821854 216.020889,144.064987 
	C225.845169,137.617371 235.774689,131.323959 245.788101,125.174103 
	C249.119278,123.128235 252.835892,121.709930 256.835388,120.383163 
	C257.461792,121.516937 257.629120,122.272301 257.796509,123.027657 
	C257.704041,131.124084 257.611572,139.220520 257.339050,147.673019 
	C251.775146,151.062866 246.296021,153.941345 241.031540,157.169830 
	C234.486237,161.183792 228.118317,165.486969 221.379333,169.815033 
	C215.466843,164.553909 209.848801,159.143005 204.088684,153.435913 
z"/>
<path fill="#40CB31" opacity="1.000000" stroke="none" 
	d="
M257.139709,81.993500 
	C255.763214,82.527573 254.264420,82.863693 253.029434,83.626778 
	C242.331924,90.236694 231.730042,97.002029 221.007614,103.570816 
	C198.423721,117.406204 175.740753,131.080338 153.198029,144.982132 
	C147.636093,148.412109 142.455826,152.460968 137.065460,156.571411 
	C130.370407,150.186172 123.710014,143.454849 116.892761,136.421158 
	C126.434639,130.102036 136.150574,124.112724 145.827805,118.061562 
	C158.028671,110.432381 170.145737,102.668083 182.392105,95.113068 
	C205.483261,80.867691 228.631882,66.715225 251.794846,52.586845 
	C253.133118,51.770554 254.813400,51.514977 256.734528,50.996109 
	C257.248413,59.695000 257.362305,68.396240 257.472534,77.911179 
	C257.359131,79.814415 257.249420,80.903961 257.139709,81.993500 
z"/>
<path fill="#FFD600" opacity="1.000000" stroke="none" 
	d="
M257.206909,82.458908 
	C257.249420,80.903961 257.359131,79.814415 257.634705,78.347504 
	C263.007416,81.287811 268.433228,84.311668 273.370972,87.990570 
	C281.185425,93.812820 288.671631,100.075607 296.299408,106.148605 
	C303.395203,111.798058 310.475464,117.467232 317.597473,123.083443 
	C324.986694,128.910370 332.434326,134.663162 339.826233,140.486694 
	C348.127045,147.026291 356.381866,153.624268 364.686005,160.159622 
	C366.369537,161.484573 368.183685,162.643570 370.128418,164.224747 
	C367.864380,167.303482 365.409607,170.036545 362.804504,173.030685 
	C357.702332,178.118988 352.750549,182.946198 347.515289,187.925995 
	C341.199188,189.057938 337.914307,184.408829 333.972900,181.371994 
	C326.378113,175.520233 319.059082,169.312103 311.561951,163.331619 
	C304.225769,157.479492 296.826111,151.706421 289.425507,145.935623 
	C280.171997,138.720001 270.904144,131.522400 261.594147,124.380089 
	C260.711243,123.702759 259.483795,123.474503 258.106384,123.032715 
	C257.629120,122.272301 257.461792,121.516937 257.221436,120.376770 
	C257.190308,107.636070 257.232178,95.280182 257.206909,82.458908 
z"/>
</svg>